<?xml version="1.0" standalone="no"?><!DOCTYPE svg PUBLIC "-//W3C//DTD SVG 1.1//EN" "http://www.w3.org/Graphics/SVG/1.1/DTD/svg11.dtd"><svg t="1719791504535" class="icon" viewBox="0 0 1636 1024" version="1.1" xmlns="http://www.w3.org/2000/svg" p-id="69136" xmlns:xlink="http://www.w3.org/1999/xlink" width="409" height="256"><path d="M0 248.614904v-111.448855c133.014334 0 162.746837-58.581253 189.349704-125.734905h115.802296v1000.177111H133.014334V248.614904H0z m854.423295 8.574319c0-90.01594-34.427917-114.305681-89.197509-114.305681-54.771512 0-89.197508 27.146567-89.197508 98.588338v107.160735h-162.748758v-97.158964C513.27952 91.445313 600.913171 0 769.921201 0c169.006109 0 256.63976 91.445313 256.63976 251.473651 0 314.341103-342.709553 431.505531-342.709554 595.820068 0 7.144946 0 14.28797 1.565779 21.432915h325.493673v142.881621h-497.629418v-122.88c0-294.337561 341.141854-342.915122 341.141854-631.539032z m610.304 55.724428v-55.724428c0-90.01594-34.427917-114.305681-89.19943-114.305681-54.769591 0-89.197508 27.146567-89.197509 98.588338v64.296825h-162.746836v-54.295054C1123.58352 91.445313 1211.21525 0 1380.22328 0S1636.863039 91.445313 1636.863039 251.473651v25.719114c0 107.160735-37.557553 174.316308-120.495789 205.750995C1602.437043 517.235272 1636.863039 591.533869 1636.863039 692.980953v78.584796c0 160.028338-87.633651 251.473651-256.639759 251.473651-169.00803 0-256.63976-91.445313-256.63976-251.473651v-82.870995h162.744915v92.872766c0 71.441771 34.427917 98.588338 89.201351 98.588337 54.769591 0 89.197508-24.289741 89.197509-112.876307v-78.584796c0-92.874687-34.427917-127.166199-112.672661-127.166199h-57.899227v-142.881621h67.288135c64.16042 0 103.283752-25.719114 103.283753-105.733283z" fill="#2c2c2c" p-id="69137"></path></svg>